<svg width="60" height="60" viewBox="0 0 60 60" fill="none" xmlns="http://www.w3.org/2000/svg">
<path fill-rule="evenodd" clip-rule="evenodd" d="M7.12926 12.0815C6.42859 13.4566 6.42859 15.2568 6.42859 18.8571V41.1428C6.42859 44.7432 6.42859 46.5434 7.12926 47.9185C7.74559 49.1281 8.72904 50.1116 9.93865 50.7279C11.3138 51.4286 13.114 51.4286 16.7143 51.4286H43.2857C46.8861 51.4286 48.6862 51.4286 50.0614 50.7279C51.271 50.1116 52.2544 49.1281 52.8708 47.9185C53.5714 46.5434 53.5714 44.7432 53.5714 41.1428V18.8571C53.5714 15.2568 53.5714 13.4566 52.8708 12.0815C52.2544 10.8719 51.271 9.88841 50.0614 9.27208C48.6862 8.57141 46.8861 8.57141 43.2857 8.57141H16.7143C13.114 8.57141 11.3138 8.57141 9.93865 9.27208C8.72904 9.88841 7.74559 10.8719 7.12926 12.0815ZM11.0646 21.0407C10.7143 21.7283 10.7143 22.6284 10.7143 24.4285V42C10.7143 43.8001 10.7143 44.7002 11.0646 45.3878C11.3728 45.9926 11.8645 46.4843 12.4693 46.7925C13.1569 47.1428 14.057 47.1428 15.8571 47.1428H44.1429C45.943 47.1428 46.8431 47.1428 47.5307 46.7925C48.1355 46.4843 48.6272 45.9926 48.9354 45.3878C49.2857 44.7002 49.2857 43.8001 49.2857 42V24.4285C49.2857 22.6284 49.2857 21.7283 48.9354 21.0407C48.6272 20.4359 48.1355 19.9442 47.5307 19.636C46.8431 19.2857 45.943 19.2857 44.1429 19.2857H15.8571C14.057 19.2857 13.1569 19.2857 12.4693 19.636C11.8645 19.9442 11.3728 20.4359 11.0646 21.0407ZM23.5714 24.6428C23.5714 24.0511 24.0511 23.5714 24.6429 23.5714H26.7857C27.3774 23.5714 27.8571 24.0511 27.8571 24.6428V26.7857C27.8571 27.3774 27.3774 27.8571 26.7857 27.8571H24.6429C24.0511 27.8571 23.5714 27.3774 23.5714 26.7857V24.6428ZM24.6429 31.0714C24.0511 31.0714 23.5714 31.5511 23.5714 32.1428V34.2857C23.5714 34.8774 24.0511 35.3571 24.6429 35.3571H26.7857C27.3774 35.3571 27.8571 34.8774 27.8571 34.2857V32.1428C27.8571 31.5511 27.3774 31.0714 26.7857 31.0714H24.6429ZM23.5714 39.6428C23.5714 39.0511 24.0511 38.5714 24.6429 38.5714H26.7857C27.3774 38.5714 27.8571 39.0511 27.8571 39.6428V41.7857C27.8571 42.3774 27.3774 42.8571 26.7857 42.8571H24.6429C24.0511 42.8571 23.5714 42.3774 23.5714 41.7857V39.6428ZM16.0714 31.0714C15.4797 31.0714 15 31.5511 15 32.1428V34.2857C15 34.8774 15.4797 35.3571 16.0714 35.3571H18.2143C18.806 35.3571 19.2857 34.8774 19.2857 34.2857V32.1428C19.2857 31.5511 18.806 31.0714 18.2143 31.0714H16.0714ZM15 39.6428C15 39.0511 15.4797 38.5714 16.0714 38.5714H18.2143C18.806 38.5714 19.2857 39.0511 19.2857 39.6428V41.7857C19.2857 42.3774 18.806 42.8571 18.2143 42.8571H16.0714C15.4797 42.8571 15 42.3774 15 41.7857V39.6428ZM33.2143 23.5714C32.6226 23.5714 32.1429 24.0511 32.1429 24.6428V26.7857C32.1429 27.3774 32.6226 27.8571 33.2143 27.8571H35.3571C35.9489 27.8571 36.4286 27.3774 36.4286 26.7857V24.6428C36.4286 24.0511 35.9489 23.5714 35.3571 23.5714H33.2143ZM32.1429 32.1428C32.1429 31.5511 32.6226 31.0714 33.2143 31.0714H35.3571C35.9489 31.0714 36.4286 31.5511 36.4286 32.1428V34.2857C36.4286 34.8774 35.9489 35.3571 35.3571 35.3571H33.2143C32.6226 35.3571 32.1429 34.8774 32.1429 34.2857V32.1428ZM33.2143 38.5714C32.6226 38.5714 32.1429 39.0511 32.1429 39.6428V41.7857C32.1429 42.3774 32.6226 42.8571 33.2143 42.8571H35.3571C35.9489 42.8571 36.4286 42.3774 36.4286 41.7857V39.6428C36.4286 39.0511 35.9489 38.5714 35.3571 38.5714H33.2143ZM40.7143 24.6428C40.7143 24.0511 41.194 23.5714 41.7857 23.5714H43.9286C44.5203 23.5714 45 24.0511 45 24.6428V26.7857C45 27.3774 44.5203 27.8571 43.9286 27.8571H41.7857C41.194 27.8571 40.7143 27.3774 40.7143 26.7857V24.6428ZM41.7857 31.0714C41.194 31.0714 40.7143 31.5511 40.7143 32.1428V34.2857C40.7143 34.8774 41.194 35.3571 41.7857 35.3571H43.9286C44.5203 35.3571 45 34.8774 45 34.2857V32.1428C45 31.5511 44.5203 31.0714 43.9286 31.0714H41.7857Z" fill="#C4FF1E"/>
</svg>
