<svg width="63" height="63" viewBox="0 0 63 63" fill="none" xmlns="http://www.w3.org/2000/svg">
<path d="M30.9244 56.75C27.3086 56.75 24.1505 56.1016 21.4501 54.8048C18.7649 53.508 16.6748 51.6924 15.1796 49.3582C13.6845 47.0239 12.9369 44.293 12.9369 41.1654C12.9369 39.5177 13.0666 38.0531 13.3259 36.7715C13.6006 35.4899 13.9286 34.3381 14.31 33.3159C14.7067 32.2784 15.1033 31.302 15.5 30.3866C15.8967 29.4712 16.2247 28.5635 16.484 27.6633C16.7434 26.7632 16.8731 25.802 16.8731 24.7798C16.8731 24.2764 16.8426 23.7271 16.7815 23.1321C16.7358 22.5218 16.7129 22.0718 16.7129 21.7819C16.7129 21.2784 16.8578 20.8665 17.1477 20.5461C17.4376 20.2257 17.819 20.0655 18.292 20.0655C19.1006 20.0655 19.9168 20.3096 20.7406 20.7979C21.5797 21.2861 22.3273 21.965 22.9834 22.8346C23.6546 23.689 24.1657 24.6807 24.5166 25.8096L23.3724 26.0385C23.7386 25.3977 23.9674 24.8332 24.0589 24.345C24.1657 23.8415 24.2191 23.3304 24.2191 22.8117C24.2039 21.3013 23.9216 19.8672 23.3724 18.5094C22.8384 17.1515 22.1519 15.8623 21.3128 14.6418C20.4889 13.4213 19.6269 12.2694 18.7268 11.1862C18.4827 10.9116 18.2996 10.6293 18.1775 10.3395C18.0555 10.0496 17.9944 9.75971 17.9944 9.46983C17.9944 8.73752 18.3072 8.18828 18.9327 7.82212C19.5735 7.44071 20.4355 7.25 21.5187 7.25C23.5326 7.25 25.6533 7.49411 27.8807 7.98232C30.1234 8.45527 32.3433 9.20284 34.5402 10.225C36.7524 11.232 38.8502 12.5212 40.8336 14.0926C42.8169 15.6488 44.5714 17.5024 46.0971 19.6536C47.638 21.7895 48.8509 24.2382 49.7358 26.9997C50.6207 29.7611 51.0631 32.8506 51.0631 36.268C51.0631 39.3346 50.5825 42.1266 49.6214 44.6439C48.6754 47.1612 47.31 49.32 45.525 51.1203C43.7399 52.9206 41.6116 54.3089 39.1401 55.2854C36.6838 56.2618 33.9452 56.75 30.9244 56.75ZM31.4508 50.3193C33.2663 50.3193 34.7691 49.9227 35.9591 49.1293C37.1644 48.336 38.0645 47.2909 38.6595 45.9941C39.2545 44.6973 39.552 43.2937 39.552 41.7833C39.552 40.2881 39.2621 38.7854 38.6824 37.275C38.1179 35.7646 37.2711 34.3686 36.1422 33.087C35.0132 31.8055 33.6096 30.768 31.9313 29.9747C31.8245 29.9289 31.7406 29.9365 31.6796 29.9976C31.6186 30.0433 31.5957 30.1196 31.611 30.2264C31.8093 32.103 31.7788 33.8499 31.5194 35.4671C31.2601 37.069 30.8252 38.2819 30.215 39.1058C29.9251 38.4497 29.5971 37.8395 29.2309 37.275C28.88 36.6952 28.4376 36.1689 27.9036 35.6959C27.8273 35.6349 27.751 35.6196 27.6748 35.6501C27.6137 35.6654 27.5756 35.7264 27.5603 35.8332C27.4688 36.4893 27.2552 37.0919 26.9196 37.6411C26.5839 38.1751 26.2177 38.7396 25.8211 39.3346C25.4244 39.9144 25.0735 40.5704 24.7684 41.3027C24.4785 42.0198 24.3336 42.8818 24.3336 43.8887C24.3336 45.811 24.982 47.3672 26.2788 48.5572C27.5908 49.732 29.3148 50.3193 31.4508 50.3193Z" fill="#C4FF1E"/>
</svg>
