<svg width="36" height="36" viewBox="0 0 36 36" fill="none" xmlns="http://www.w3.org/2000/svg">
<path d="M17.9879 29.9503C17.6753 29.9503 17.3751 29.9378 17.0749 29.9128L16.3871 31.226C16.237 31.5261 15.9368 31.6762 15.5866 31.6137C15.249 31.5512 15.0363 31.301 14.9738 30.9508L14.7487 29.5126C14.1734 29.35 13.6106 29.1374 13.0478 28.8997L11.9847 29.8502C11.7221 30.0754 11.3844 30.1504 11.0467 29.9628C10.7715 29.8002 10.659 29.475 10.7215 29.1248L10.9967 27.7116C10.5339 27.3614 10.0461 26.9737 9.62092 26.561L8.30771 27.1113C7.95752 27.2488 7.63234 27.1613 7.38221 26.8736C7.16959 26.6235 7.15708 26.2733 7.33218 25.9731L8.09509 24.735C7.76992 24.2472 7.48226 23.7219 7.1946 23.1716L5.74382 23.2217C5.40614 23.2467 5.09347 23.0716 4.99341 22.7214C4.88085 22.3962 4.98091 22.071 5.25606 21.8584L6.38166 20.9579C6.23158 20.3826 6.13153 19.7823 6.09401 19.157L4.70576 18.7192C4.35557 18.6067 4.16797 18.3565 4.16797 17.9938C4.16797 17.6311 4.35557 17.3685 4.70576 17.2684L6.09401 16.8307C6.13153 16.2054 6.23158 15.6175 6.38166 15.0297L5.25606 14.1167C4.98091 13.9166 4.88085 13.604 4.99341 13.2788C5.09347 12.9286 5.40614 12.7535 5.74382 12.7785L7.1946 12.816C7.48226 12.2657 7.76992 11.753 8.09509 11.2402L7.31967 10.002C7.14458 9.72686 7.1821 9.37668 7.38221 9.12654C7.63234 8.82638 7.95752 8.75134 8.2952 8.88891L9.62092 9.4142C10.0461 9.02649 10.5339 8.62627 10.9967 8.27608L10.7215 6.87532C10.6465 6.50012 10.7715 6.18745 11.0467 6.03737C11.3844 5.84977 11.7221 5.8998 11.9847 6.14993L13.0478 7.07543C13.6106 6.85031 14.1734 6.6502 14.7487 6.47511L14.9738 5.04934C15.0363 4.69915 15.249 4.44901 15.5866 4.38648C15.9368 4.32395 16.237 4.47403 16.3871 4.76168L17.0749 6.07489C17.3876 6.04988 17.6753 6.03737 17.9879 6.03737C18.2881 6.03737 18.5883 6.04988 18.8884 6.07489L19.5888 4.76168C19.7264 4.47403 20.039 4.32395 20.3892 4.38648C20.7269 4.44901 20.9645 4.69915 21.0021 5.04934L21.2272 6.48761C21.8025 6.6502 22.3653 6.85031 22.9156 7.07543L23.9912 6.13743C24.2413 5.8998 24.5915 5.84977 24.9167 6.03737C25.2043 6.18745 25.3294 6.50012 25.2544 6.87532L24.9667 8.27608C25.442 8.62627 25.9172 9.02649 26.3425 9.4142L27.6807 8.88891C28.0184 8.75134 28.3435 8.82638 28.5937 9.12654C28.7938 9.37668 28.8188 9.72686 28.6437 10.002L27.8808 11.2402C28.206 11.753 28.5061 12.2657 28.7813 12.816L30.2321 12.7785C30.5572 12.7535 30.8824 12.9286 30.9825 13.2788C31.095 13.604 30.97 13.9166 30.7198 14.1167L29.5942 15.0297C29.7443 15.6175 29.8443 16.2054 29.8944 16.8307L31.2576 17.2684C31.6078 17.381 31.8329 17.6311 31.8329 17.9938C31.8329 18.344 31.6078 18.6067 31.2576 18.7192L29.8944 19.157C29.8443 19.7823 29.7443 20.3826 29.5942 20.9579L30.7198 21.8584C30.9825 22.071 31.095 22.3962 30.9825 22.7214C30.8824 23.0716 30.5572 23.2467 30.2321 23.2217L28.7813 23.1716C28.5061 23.7219 28.206 24.2472 27.8808 24.735L28.6437 25.9731C28.8313 26.2733 28.7938 26.6235 28.5937 26.8736C28.3435 27.1613 28.0184 27.2488 27.6682 27.1113L26.3425 26.561C25.9172 26.9737 25.442 27.3614 24.9667 27.7116L25.2544 29.1248C25.3419 29.475 25.2043 29.8002 24.9167 29.9628C24.5915 30.1504 24.2413 30.0754 23.9912 29.8502L22.9156 28.8997C22.3653 29.1374 21.8025 29.35 21.2272 29.5L21.0021 30.9508C20.9645 31.301 20.7269 31.5512 20.3892 31.6137C20.039 31.6762 19.7389 31.5261 19.5888 31.226L18.8884 29.9128C18.5883 29.9378 18.2881 29.9503 17.9879 29.9503ZM17.9629 14.7421C19.4637 14.7421 20.7144 15.7426 21.1146 17.1184H27.7807C27.3555 12.0031 23.2408 8.05096 17.9879 8.05096C16.4371 8.05096 14.9988 8.38864 13.7106 9.00147L17.125 14.8546C17.3876 14.7796 17.6753 14.7421 17.9629 14.7421ZM8.18264 18.0063C8.18264 21.3081 9.70846 24.2222 12.1223 26.0232L15.6242 20.2951C15.0488 19.7073 14.6987 18.9068 14.6987 18.0188C14.6987 17.1309 15.0488 16.3304 15.6117 15.7426L12.1973 9.91447C9.73348 11.7154 8.18264 14.6545 8.18264 18.0063ZM17.9629 19.4071C18.7634 19.4071 19.3762 18.8193 19.3762 18.0188C19.3762 17.2184 18.7634 16.6056 17.9629 16.6056C17.175 16.6056 16.5622 17.2184 16.5622 18.0188C16.5622 18.8193 17.175 19.4071 17.9629 19.4071ZM17.9879 27.9367C23.2533 27.9367 27.3805 23.9721 27.7932 18.8443H21.1271C20.7644 20.245 19.4887 21.2831 17.9629 21.2831C17.6753 21.2831 17.4001 21.2456 17.125 21.1705L13.6231 26.9362C14.9238 27.574 16.4121 27.9367 17.9879 27.9367Z" fill="url(#paint0_radial_62_1220)"/>
<defs>
<radialGradient id="paint0_radial_62_1220" cx="0" cy="0" r="1" gradientUnits="userSpaceOnUse" gradientTransform="translate(42.2908 17.9969) scale(108.231 68.5969)">
<stop stop-color="#C4FF1E"/>
<stop offset="0.5922" stop-color="#007AFF"/>
</radialGradient>
</defs>
</svg>
