<svg width="118" height="25" viewBox="0 0 118 25" fill="none" xmlns="http://www.w3.org/2000/svg">
<path d="M102.757 18.6745L104.224 16.6918C104.386 16.4664 104.646 16.345 104.917 16.345H108.169C108.458 16.345 108.758 16.345 109.058 16.345C109.757 16.345 110.167 15.5588 109.769 14.9866C109.601 14.7496 109.439 14.5126 109.283 14.2987L107.343 11.4894C107.008 10.998 106.28 10.9922 105.934 11.4778L100.019 19.6977C99.8576 19.9231 99.5977 20.0561 99.3205 20.0561H96.0688C95.3642 20.0561 94.9599 19.2584 95.37 18.6861L103.797 7.01524C104.415 6.17707 105.31 5.40248 106.736 5.40248C108.163 5.40248 108.995 6.11348 109.63 7.01524L117.843 18.6919C118.241 19.2641 117.837 20.0503 117.138 20.0503H103.439C102.745 20.0445 102.341 19.241 102.757 18.6745Z" fill="white"/>
<path d="M92.6859 20.0443H88.6293C88.4185 20.0443 88.2137 19.968 88.0497 19.8329L83.8057 16.1974C83.3257 15.7863 82.9218 15.4397 82.5823 15.1461C82.0028 14.6469 81.113 15.058 81.113 15.8332C81.113 15.8391 81.113 15.845 81.113 15.8509V19.1633C81.113 19.6567 80.7149 20.0561 80.2232 20.0561H77.3724C76.8807 20.0561 76.4827 19.6567 76.4827 19.1633V6.2952C76.4827 5.80186 76.8807 5.40248 77.3724 5.40248H80.2232C80.7149 5.40248 81.113 5.80186 81.113 6.2952V8.7913C81.113 8.94988 81.113 9.1202 81.113 9.27878C81.1013 10.0482 81.9969 10.471 82.5764 9.96594C82.916 9.67228 83.3082 9.33751 83.7589 8.9675L87.8039 5.60217C87.9619 5.46708 88.1668 5.40248 88.3658 5.40248H92.0128C92.8674 5.40248 93.2362 6.50076 92.5396 7.00586L89.0273 9.6018C87.7863 10.5239 86.9609 11.1288 86.2878 11.5869C85.7785 11.9335 85.7609 12.6852 86.2702 13.0552C86.9844 13.5662 87.8917 14.2475 89.0976 15.2166L93.2303 18.4644C93.9035 18.9813 93.5347 20.0502 92.6859 20.0443Z" fill="white"/>
<path d="M74.8973 20.0561H72.3701C71.9403 20.0561 71.5985 19.6624 71.5985 19.1806V6.27793C71.5985 5.79027 71.9455 5.40248 72.3701 5.40248H74.8973C75.3271 5.40248 75.6689 5.79614 75.6689 6.27793V19.1806C75.6741 19.6683 75.3271 20.0561 74.8973 20.0561Z" fill="white"/>
<path d="M70.7845 17.1653V19.1806C70.7845 19.6683 70.3715 20.0561 69.866 20.0561H57.8635C57.3519 20.0561 56.945 19.6624 56.945 19.1806V6.27793C56.945 5.79027 57.358 5.40248 57.8635 5.40248H60.8718C61.3835 5.40248 61.7904 5.79614 61.7904 6.27793V15.4144C61.7904 15.9021 62.2034 16.2898 62.7089 16.2898H69.8598C70.3715 16.2898 70.7845 16.6835 70.7845 17.1653Z" fill="white"/>
<path d="M56.1005 17.1535L56.1304 19.1689C56.1364 19.6565 55.7349 20.0561 55.2374 20.0561H42.3699C41.8725 20.0561 41.4769 19.6624 41.4769 19.1806V6.27793C41.4769 5.79027 41.8785 5.40248 42.3699 5.40248H55.1895C55.6869 5.40248 56.0825 5.79614 56.0825 6.28381V8.34025C56.0705 8.82204 55.6749 9.2157 55.1835 9.2157H47.1106C46.6131 9.2157 46.2176 9.60936 46.2176 10.0912C46.2176 10.5788 46.6191 10.9666 47.1106 10.9666H55.1955C55.6929 10.9666 56.0885 11.3603 56.0885 11.8421V13.4226C56.0885 13.9103 55.6869 14.298 55.1955 14.298H47.1106C46.6131 14.298 46.2176 14.6917 46.2176 15.1735V15.4144C46.2176 15.9021 46.6191 16.2898 47.1106 16.2898H55.2075C55.6929 16.2898 56.0945 16.6718 56.1005 17.1535Z" fill="white"/>
<path d="M39.7644 20.0561H36.8249C36.3208 20.0561 35.92 19.6624 35.92 19.1806V15.2793C35.92 14.7916 35.5131 14.4038 35.0151 14.4038H27.6421C27.138 14.4038 26.7372 14.7975 26.7372 15.2793V19.1806C26.7372 19.6683 26.3302 20.0561 25.8322 20.0561H22.8442C22.3401 20.0561 21.9393 19.6624 21.9393 19.1806V6.27793C21.9393 5.79027 22.3462 5.40248 22.8442 5.40248H25.8262C26.3302 5.40248 26.7311 5.79614 26.7311 6.27793V9.71512C26.7311 10.2028 27.138 10.5906 27.636 10.5906H35.009C35.5131 10.5906 35.9139 10.1969 35.9139 9.71512V6.27793C35.9139 5.79027 36.3208 5.40248 36.8188 5.40248H39.7583C40.2624 5.40248 40.6632 5.79614 40.6632 6.27793V19.1806C40.6693 19.6683 40.2685 20.0561 39.7644 20.0561Z" fill="white"/>
<path d="M9.70402 24.9407C9.46992 24.9407 9.2768 24.7446 9.2768 24.5068L9.28265 19.9302L6.91244 22.1174C6.75443 22.266 6.50863 22.266 6.34476 22.1234C6.1809 21.9748 6.15164 21.7311 6.28039 21.5528L8.4165 18.4205L4.13257 20.578C3.93359 20.6731 3.6995 20.6078 3.58245 20.4235C3.4654 20.2333 3.51222 19.9896 3.68194 19.8529L8.14729 16.3164L1.26491 17.4041C1.04838 17.4398 0.843544 17.2971 0.785021 17.0831C0.73235 16.8692 0.849397 16.6433 1.06008 16.572L7.9366 14.1351L2.0901 13.1662C1.86771 13.1306 1.71555 12.9285 1.7331 12.7026C1.75066 12.4768 1.93208 12.3044 2.15447 12.3044H12.121L9.71572 11.9062C9.52259 11.8705 9.38214 11.716 9.35873 11.5139C9.34702 11.3178 9.45822 11.1335 9.63964 11.0681L13.6661 9.64758L9.80351 10.2538C9.61038 10.2836 9.4231 10.1825 9.34702 9.99826C9.27094 9.81995 9.32361 9.60597 9.47577 9.4871L11.9104 7.56134L9.92055 8.56583C9.74498 8.65498 9.5343 8.60743 9.4114 8.46479C9.2885 8.31619 9.27094 8.09628 9.38214 7.9358L10.3302 6.55092L10.02 6.83621C9.89714 6.95509 9.71572 6.98481 9.56356 6.90754C9.4114 6.84216 9.30606 6.68168 9.30606 6.50931L9.31191 0.951956C9.31191 0.714208 9.50504 0.518066 9.73913 0.518066C9.97323 0.518066 10.1664 0.714208 10.1664 0.951956L10.1605 5.5286L12.5307 3.34132C12.6887 3.19273 12.9345 3.19273 13.0984 3.33538C13.2623 3.47803 13.2915 3.72766 13.1628 3.90597L11.0325 7.0383L15.3164 4.88074C15.5154 4.78564 15.7495 4.85102 15.8666 5.03527C15.9836 5.21953 15.9368 5.46916 15.7729 5.60587L11.3017 9.14237L18.1899 8.06061C18.4065 8.02495 18.6113 8.1676 18.6698 8.38157C18.7225 8.59555 18.6055 8.82141 18.3948 8.89273L11.5182 11.3237L17.3648 12.2925C17.5871 12.3282 17.7393 12.5303 17.7218 12.7561C17.71 12.9285 17.5989 13.0711 17.4408 13.1246C17.3882 13.1484 17.3296 13.1603 17.2653 13.1603H7.38648L9.72743 13.5526C9.92055 13.5882 10.061 13.7428 10.0844 13.9449C10.102 14.141 9.98493 14.3253 9.80351 14.3906L5.75953 15.8231L9.64549 15.2109C9.83862 15.1812 10.0259 15.2822 10.102 15.4665C10.1781 15.6448 10.1254 15.8587 9.97323 15.9776L7.5445 17.8974L9.52259 16.8989C9.69816 16.8097 9.90885 16.8573 10.0317 16.9999C10.1546 17.1485 10.1722 17.3684 10.061 17.5289L9.10708 18.9257L9.4231 18.6344C9.546 18.5156 9.72743 18.4859 9.87959 18.5631C10.0317 18.6285 10.1371 18.789 10.1371 18.9613L10.1312 24.5187C10.1312 24.7505 9.93811 24.9407 9.70402 24.9407Z" fill="white"/>
</svg>
