<svg width="372" height="465" viewBox="0 0 372 465" fill="none" xmlns="http://www.w3.org/2000/svg">
<path d="M50.8507 426.408L50.8256 426.764H50.8101L50.7828 426.567L50.7555 426.759C44.6446 425.895 41.4584 421.652 40.3108 419.727C39.0189 417.577 36.4033 411.816 40.0229 405.182L40.0241 405.18L224.313 71.2244L225.251 71.466V154.882V155.018L225.182 155.135L184.748 224.038C182.172 228.429 181.493 233.677 182.865 238.595C184.236 243.497 187.535 247.633 192.026 250.07L50.8507 426.408ZM50.8507 426.408L50.9459 426.745L224.422 377.774L224.787 377.671V377.292V355.107C224.787 352.221 225.464 349.363 226.746 346.776L256.986 285.777L257.2 285.345L256.776 285.116L192.026 250.07L50.8507 426.408ZM441.744 419.593L441.674 419.712C440.526 421.636 437.372 425.847 431.309 426.743L431.201 426.759L431.095 426.728L262.816 377.263L262.457 377.157V376.783V359.615V359.498L262.509 359.393L298.999 285.781C303.489 276.728 299.993 265.735 291.103 260.922L227.544 226.509L227.089 226.263L227.351 225.817L260.329 169.605L441.744 419.593ZM441.744 419.593V419.576M441.744 419.593V419.576M441.744 419.576C443.041 417.342 445.501 411.669 441.963 405.154C441.963 405.154 441.962 405.153 441.962 405.152L263.847 70.7678L262.906 71.0029V160.1C262.906 163.438 262.017 166.717 260.329 169.604L441.744 419.576ZM475.096 387.254L475.098 387.257C483.985 403.622 483.602 422.948 474.056 438.946C464.51 454.943 447.673 464.5 429.009 464.5H426.297L244.83 411.164L244.692 411.123L244.553 411.162L55.5979 464.5H52.9911C34.3266 464.5 17.4902 454.943 7.94382 438.946C-1.60185 422.949 -1.98535 403.624 6.90061 387.26C6.90108 387.259 6.90154 387.258 6.902 387.257L208.56 21.8713L208.562 21.8682C215.713 8.69067 229.497 0.5 244.519 0.5C259.54 0.5 273.323 8.6894 280.475 21.8651C280.475 21.8662 280.476 21.8672 280.476 21.8682L475.096 387.254Z" stroke="#9654F0" stroke-opacity="0.5"/>
</svg>
