<svg width="372" height="466" viewBox="0 0 372 466" fill="none" xmlns="http://www.w3.org/2000/svg">
<path d="M428.404 465.932H425.629C425.629 465.932 425.475 465.932 425.413 465.901L244.677 412.676L56.479 465.901C56.479 465.901 56.3403 465.932 56.2632 465.932H53.5958C34.5539 465.932 17.3469 456.156 7.60237 439.797C-2.14213 423.438 -2.54301 403.672 6.53849 386.927L207.55 22.0022C214.904 8.43392 229.058 0 244.508 0C259.957 0 274.111 8.43392 281.466 22.0022L475.461 386.912C484.543 403.656 484.142 423.423 474.398 439.782C464.653 456.156 447.446 465.916 428.404 465.916V465.932ZM425.737 464.39H428.404C446.906 464.39 463.605 454.892 473.072 438.996C482.539 423.099 482.924 403.903 474.105 387.637L280.109 22.7269C273.032 9.65199 259.387 1.54185 244.508 1.54185C229.629 1.54185 215.983 9.6674 208.906 22.7423L7.89532 387.652C-0.924063 403.919 -0.538601 423.115 8.92836 438.996C18.3953 454.892 35.0936 464.39 53.5958 464.39H56.1552L244.461 411.134C244.6 411.088 244.754 411.088 244.893 411.134L425.737 464.39ZM51.4372 427.247C51.4372 427.247 51.3293 427.247 51.2676 427.231C45.0539 426.322 41.8315 421.943 40.7367 420.093C39.4262 417.903 36.7588 412.06 40.4438 405.291L224.124 71.7731C224.294 71.4648 224.649 71.3106 224.988 71.4031C225.327 71.4956 225.574 71.804 225.574 72.1432V155.449C225.574 155.588 225.543 155.727 225.466 155.835L185.162 224.648C182.649 228.949 181.97 234.161 183.312 238.971C184.653 243.767 187.937 247.883 192.316 250.258L256.858 285.258C257.228 285.458 257.367 285.905 257.182 286.275L227.039 347.194C225.774 349.738 225.111 352.575 225.111 355.397V377.553C225.111 377.892 224.88 378.201 224.556 378.293L51.7301 427.17C51.6376 427.201 51.5451 427.231 51.4372 427.231V427.247ZM224.032 75.1344L41.7852 406.031C38.4856 412.09 40.8755 417.333 42.0473 419.291C43.0341 420.941 45.8865 424.841 51.3755 425.69L223.569 376.982V355.412C223.569 352.359 224.294 349.291 225.651 346.531L255.47 286.275L191.576 251.63C186.827 249.055 183.281 244.599 181.831 239.403C180.382 234.192 181.107 228.533 183.836 223.877L224.032 155.249V75.1498V75.1344ZM430.624 427.231C430.624 427.231 430.47 427.231 430.409 427.201L262.671 377.8C262.347 377.707 262.116 377.399 262.116 377.06V359.914C262.116 359.791 262.146 359.683 262.193 359.575L298.565 286.06C303.006 277.101 299.598 266.355 290.81 261.59L227.455 227.223C227.27 227.13 227.131 226.96 227.085 226.76C227.023 226.56 227.054 226.344 227.162 226.159L260.034 170.02C261.684 167.183 262.563 163.945 262.563 160.661V71.6806C262.563 71.326 262.809 71.0176 263.149 70.9251C263.488 70.848 263.843 71.0022 264.012 71.3106L441.556 405.26C445.164 411.905 442.635 417.703 441.31 419.969C441.31 420 441.279 420.031 441.263 420.062C440.169 421.912 436.946 426.291 430.732 427.216C430.702 427.216 430.655 427.216 430.624 427.216V427.231ZM263.658 376.474L430.671 425.659C436.021 424.795 438.858 421.033 439.876 419.353C439.876 419.322 439.906 419.291 439.922 419.26C441.094 417.286 443.468 412.029 440.184 405.985L264.105 74.7798V160.661C264.105 164.207 263.164 167.723 261.36 170.791L228.889 226.236L291.55 260.218C301.063 265.383 304.748 277.024 299.953 286.723L263.658 360.084V376.474Z" fill="#9654F0" fill-opacity="0.5"/>
</svg>
