<svg width="147" height="131" viewBox="0 0 147 131" fill="none" xmlns="http://www.w3.org/2000/svg">
<g clip-path="url(#clip0_164_365)">
<path d="M144.996 7.27276C142.517 2.97948 137.899 0.312805 132.94 0.312805H30.1577L43.5054 23.4316H117.008L80.2565 87.0868L93.6041 110.206L144.996 21.1927C147.475 16.8994 147.475 11.566 144.996 7.27276Z" fill="#02025C"/>
<path d="M73.5901 98.6462L30.1652 23.4316H30.2053L16.8605 0.312805H14.2325C9.27537 0.312805 4.65591 2.97948 2.17666 7.27276C-0.302602 11.566 -0.301171 16.8994 2.17666 21.1927L61.5343 124.004C64.0122 128.297 68.6316 130.964 73.5887 130.964C78.5458 130.964 83.1652 128.297 85.6445 124.004L86.9507 121.742L73.6044 98.6205L73.5901 98.6462ZM65.623 112.445C65.6259 112.439 65.6302 112.433 65.633 112.427C65.6302 112.433 65.6273 112.439 65.623 112.445Z" fill="#02025C"/>
</g>
<defs>
<clipPath id="clip0_164_365">
<rect width="146.898" height="131" fill="white"/>
</clipPath>
</defs>
</svg>
