<svg width="142" height="142" viewBox="0 0 142 142" fill="none" xmlns="http://www.w3.org/2000/svg">
<path d="M70.9119 137.804C70.6013 137.803 70.2937 137.742 70.0068 137.623C69.72 137.503 69.4594 137.329 69.24 137.109C69.0205 136.889 68.8466 136.628 68.7281 136.341C68.6095 136.054 68.5487 135.746 68.5491 135.435L68.5732 110.394L55.4126 122.347C54.9825 122.737 54.424 122.955 53.8436 122.96C53.2632 122.964 52.7012 122.755 52.2648 122.373C51.8283 121.99 51.5477 121.46 51.4765 120.884C51.4052 120.308 51.5482 119.726 51.8783 119.249L63.758 102.119L39.9758 113.934C39.4508 114.194 38.8478 114.25 38.2837 114.091C37.7196 113.932 37.2345 113.57 36.9225 113.074C36.6105 112.578 36.4937 111.983 36.5947 111.406C36.6958 110.829 37.0075 110.31 37.4695 109.949L62.2698 90.6257L24.0278 96.5599C23.4458 96.6469 22.8522 96.5138 22.363 96.1867C21.8738 95.8596 21.524 95.3619 21.3821 94.7907C21.2402 94.2196 21.3162 93.6161 21.5953 93.098C21.8745 92.5799 22.3367 92.1845 22.8918 91.9889L61.0898 78.6721L28.6116 73.3471C28.027 73.249 27.5006 72.935 27.1365 72.4674C26.7724 71.9997 26.5971 71.4124 26.6453 70.8217C26.6935 70.2309 26.9617 69.6798 27.3968 69.2773C27.8319 68.8749 28.4023 68.6504 28.995 68.6484H84.3281L70.9716 66.4559C70.4543 66.3693 69.9805 66.1133 69.6245 65.7281C69.2686 65.3429 69.0508 64.8504 69.0052 64.3279C68.9597 63.8054 69.0891 63.2826 69.3731 62.8417C69.657 62.4008 70.0795 62.0667 70.574 61.892L92.929 54.1118L71.4515 57.446C70.9339 57.5263 70.4042 57.4325 69.9456 57.1794C69.487 56.9262 69.1254 56.528 68.9174 56.0472C68.7095 55.5664 68.6671 55.0302 68.7967 54.5226C68.9264 54.0151 69.2209 53.5649 69.6339 53.2428L83.1651 42.6879L72.1118 48.1791C71.6418 48.4136 71.1071 48.4849 70.5921 48.3818C70.077 48.2787 69.611 48.0071 69.2674 47.6097C68.9239 47.2123 68.7226 46.7118 68.6951 46.1873C68.6676 45.6627 68.8156 45.1439 69.1156 44.7128L74.3696 37.14L72.6458 38.702C72.3064 39.0101 71.8848 39.2131 71.4323 39.2861C70.9797 39.3591 70.5157 39.2991 70.0966 39.1134C69.6776 38.9276 69.3215 38.6241 69.0717 38.2397C68.8219 37.8553 68.6892 37.4067 68.6896 36.9483L68.7195 6.56027C68.7202 5.93333 68.9698 5.33233 69.4134 4.88929C69.8569 4.44624 70.4582 4.19739 71.0852 4.19739C71.3959 4.19776 71.7034 4.25932 71.9903 4.37855C72.2772 4.49779 72.5378 4.67236 72.7572 4.8923C72.9766 5.11224 73.1505 5.37324 73.2691 5.66041C73.3876 5.94757 73.4484 6.25528 73.4481 6.56595L73.4239 31.6076L86.5816 19.6541C87.012 19.2647 87.5705 19.0471 88.1508 19.0427C88.7311 19.0383 89.2929 19.2473 89.7291 19.6301C90.1653 20.0129 90.4457 20.5426 90.5167 21.1186C90.5878 21.6946 90.4447 22.2766 90.1146 22.7539L78.2533 39.8465L102.027 28.0363C102.552 27.7777 103.154 27.7227 103.717 27.8819C104.28 28.0411 104.764 28.4032 105.075 28.8984C105.387 29.3936 105.504 29.9866 105.404 30.563C105.304 31.1394 104.994 31.6583 104.533 32.0194L79.7202 51.3755L117.972 45.4399C118.554 45.3528 119.148 45.4859 119.637 45.813C120.126 46.1401 120.476 46.6379 120.618 47.209C120.76 47.7801 120.684 48.3837 120.405 48.9018C120.125 49.4198 119.663 49.8153 119.108 50.0108L80.9244 63.2992L113.391 68.6228C113.961 68.7622 114.46 69.1043 114.796 69.5851C115.132 70.0658 115.282 70.6525 115.216 71.2353C115.151 71.8182 114.876 72.3575 114.443 72.7524C114.009 73.1473 113.447 73.3708 112.86 73.3812H58.034L71.0284 75.5112C71.5468 75.5967 72.022 75.8524 72.3791 76.2379C72.7361 76.6234 72.9546 77.1167 73.0002 77.6402C73.0458 78.1637 72.9158 78.6874 72.6308 79.1288C72.3457 79.5702 71.9218 79.9041 71.426 80.0779L48.99 87.8979L70.5513 84.5509C71.0692 84.4697 71.5995 84.563 72.0586 84.8161C72.5178 85.0691 72.8798 85.4676 73.0877 85.9489C73.2957 86.4302 73.3378 86.9669 73.2074 87.4747C73.077 87.9825 72.7815 88.4326 72.3674 88.7541L58.8945 99.2579L69.8881 93.7965C70.3581 93.562 70.8928 93.4907 71.4079 93.5938C71.923 93.6969 72.389 93.9685 72.7325 94.3659C73.076 94.7633 73.2774 95.2638 73.3049 95.7883C73.3324 96.3129 73.1844 96.8317 72.8843 97.2628L67.592 104.895L69.3542 103.294C69.6936 102.985 70.1151 102.782 70.5677 102.709C71.0202 102.636 71.4843 102.696 71.9033 102.882C72.3224 103.068 72.6785 103.371 72.9283 103.756C73.178 104.14 73.3108 104.589 73.3103 105.047L73.2805 135.435C73.2811 135.746 73.2202 136.055 73.1013 136.342C72.9825 136.63 72.8081 136.891 72.588 137.111C72.368 137.331 72.1066 137.506 71.819 137.625C71.5314 137.743 71.2231 137.804 70.9119 137.804Z" fill="#02025C"/>
</svg>
