<svg width="36" height="37" viewBox="0 0 36 37" fill="none" xmlns="http://www.w3.org/2000/svg">
<path d="M12.3832 25.9617C9.60445 29.0999 6.86619 32.1898 4.13296 35.2841C3.44712 36.0605 2.72432 36.2832 2.02457 35.9063C1.31971 35.5268 1.13027 34.8601 1.46683 33.7984C2.59699 30.2333 3.71709 26.6648 4.89044 23.114C5.14516 22.3431 4.9056 22.1327 4.20097 22.1373C3.48856 22.142 2.77577 22.1479 2.06368 22.1308C0.353304 22.0897 -0.387676 21.0748 0.197875 19.4639C1.49602 15.8928 2.84413 12.3398 4.16993 8.77872C5.02978 6.46914 5.8886 4.15917 6.74334 1.8477C7.30681 0.323912 7.62572 0.0899695 9.21341 0.0889187C12.3898 0.0868169 15.5662 0.0816064 18.7426 0.0903288C20.6175 0.0954768 21.3733 1.35099 20.4632 3.00735C18.7037 6.20972 16.9044 9.39017 15.1261 12.5822C14.5997 13.5271 14.6951 13.6897 15.7791 13.7022C16.7587 13.7135 17.7384 13.7056 18.718 13.7116C19.5898 13.717 20.3913 13.8937 20.8111 14.771C21.2568 15.7022 20.8153 16.4144 20.2096 17.0974C17.6084 20.0309 15.0191 22.9749 12.3832 25.9617Z" fill="#C4FF1E"/>
</svg>
