<svg width="15" height="14" viewBox="0 0 15 14" fill="none" xmlns="http://www.w3.org/2000/svg">
<path fill-rule="evenodd" clip-rule="evenodd" d="M3.09547 4.61533H1.08257C0.822328 4.61533 0.609885 4.82777 0.609885 5.08801V13.522C0.609885 13.7822 0.822328 13.9947 1.08257 13.9947H3.09547C3.35571 13.9947 3.56816 13.7822 3.56816 13.522V5.08801C3.56816 4.82777 3.35571 4.61533 3.09547 4.61533ZM2.08636 0C1.03477 0 0.179688 0.855084 0.179688 1.90668C0.179688 2.95827 1.03477 3.81335 2.08636 3.81335C3.13796 3.81335 3.99304 2.95827 3.99304 1.90668C3.99835 0.855084 3.14327 0 2.08636 0ZM14.0788 9.48027C14.0788 7.70637 14.1 4.47724 10.6425 4.47724C9.08105 4.47724 8.34812 5.04552 7.85419 5.78907V5.05615C7.85419 4.81715 7.65769 4.62064 7.41869 4.62064H5.33143C5.09243 4.62064 4.89592 4.81715 4.90124 5.05615V13.5645C4.90124 13.8035 5.09775 14 5.33674 14H7.424C7.66299 13.9947 7.85419 13.8035 7.85419 13.5645V9.00228C7.90731 8.3915 8.17817 7.02124 9.50594 7.02124C11.2214 7.02124 11.0515 9.01821 11.0515 9.60774V13.5592C11.0515 13.7982 11.248 13.9947 11.487 13.9894H13.6486C13.8876 13.9894 14.0841 13.7929 14.0788 13.5539V9.48027Z" fill="white"/>
</svg>
