<svg width="18" height="22" viewBox="0 0 18 22" fill="none" xmlns="http://www.w3.org/2000/svg">
<path d="M9 8.2251C11.21 8.2251 13 6.4351 13 4.2251C13 2.0151 11.21 0.225098 9 0.225098C6.79 0.225098 5 2.0151 5 4.2251C5 6.4351 6.79 8.2251 9 8.2251ZM9 2.2251C10.1 2.2251 11 3.1251 11 4.2251C11 5.3251 10.1 6.2251 9 6.2251C7.9 6.2251 7 5.3251 7 4.2251C7 3.1251 7.9 2.2251 9 2.2251ZM9 10.7751C6.64 8.5751 3.48 7.2251 0 7.2251V18.2251C3.48 18.2251 6.64 19.5751 9 21.7751C11.36 19.5851 14.52 18.2251 18 18.2251V7.2251C14.52 7.2251 11.36 8.5751 9 10.7751ZM16 16.3551C13.47 16.6951 11.07 17.6551 9 19.1751C6.94 17.6551 4.53 16.6851 2 16.3451V9.3951C4.1 9.7751 6.05 10.7451 7.64 12.2251L9 13.5051L10.36 12.2351C11.95 10.7551 13.9 9.7851 16 9.4051V16.3551Z" fill="url(#paint0_linear_146_44)"/>
<defs>
<linearGradient id="paint0_linear_146_44" x1="-1.29412" y1="10.9976" x2="18" y2="10.9976" gradientUnits="userSpaceOnUse">
<stop stop-color="#DC4CC1"/>
<stop offset="1" stop-color="#9654F0"/>
</linearGradient>
</defs>
</svg>
