<svg width="62" height="60" viewBox="0 0 62 60" fill="none" xmlns="http://www.w3.org/2000/svg">
    <path d="M60.3101 49.4773L35.6879 3.16256C34.7721 1.47177 33.0069 0.420898 31.0833 0.420898C29.1596 0.420898 27.3944 1.47177 26.4786 3.16256L0.966042 49.4773C-0.168979 51.5712 -0.120056 54.0448 1.09911 56.0917C2.31828 58.1387 4.46895 59.3618 6.8525 59.3618H7.19105L31.1048 52.5986L54.0714 59.3618H54.4236C56.8071 59.3618 58.9578 58.1387 60.177 56.0917C61.3962 54.0448 61.4451 51.5712 60.3101 49.4773ZM6.57853 54.4518C5.83294 54.3462 5.44351 53.8276 5.30261 53.5908C5.1441 53.3266 4.82512 52.6221 5.26738 51.81L28.5823 9.47954V20.0529L23.4669 28.7866C23.1322 29.3581 23.0442 30.041 23.2222 30.681C23.4003 31.3189 23.8289 31.8571 24.4121 32.1741L32.6038 36.6163L28.778 44.3482C28.6116 44.6848 28.5236 45.0566 28.5236 45.4323V48.2444L6.57657 54.4518H6.57853ZM55.9715 53.5888C55.8306 53.8256 55.4451 54.3403 54.7054 54.4499L33.4159 48.1799V46.0037L38.0323 36.6731C38.6155 35.495 38.1615 34.0645 37.0069 33.4383L28.9658 29.0763L33.138 21.9511C33.3572 21.5753 33.4727 21.1487 33.4727 20.7143V9.42084L56.0068 51.8061C56.4471 52.6182 56.1281 53.3227 55.9715 53.5869V53.5888Z" fill="url(#paint0_linear_143_485)"/>
    <defs>
        <linearGradient id="paint0_linear_143_485" x1="30.1484" y1="-16.8202" x2="30.1484" y2="81.1798" gradientUnits="userSpaceOnUse">
            <stop stop-color="#DC4CC1"/>
            <stop offset="1" stop-color="#4146AE"/>
        </linearGradient>
    </defs>
</svg>
