<svg width="71" height="69" viewBox="0 0 71 69" fill="none" xmlns="http://www.w3.org/2000/svg">
<path d="M69.8925 57.4508L41.2879 3.64483C40.2239 1.68056 38.1732 0.459717 35.9384 0.459717C33.7036 0.459717 31.6529 1.68056 30.589 3.64483L0.949849 57.4508C-0.368758 59.8834 -0.311921 62.757 1.10444 65.1351C2.52081 67.5131 5.01934 68.934 7.78842 68.934H8.18173L35.9634 61.0769L62.6447 68.934H63.054C65.823 68.934 68.3216 67.5131 69.7379 65.1351C71.1543 62.757 71.2111 59.8834 69.8925 57.4508ZM7.47013 63.2299C6.60395 63.1071 6.15153 62.5047 5.98784 62.2296C5.80369 61.9227 5.43311 61.1042 5.94692 60.1607L33.0329 10.9836V23.2671L27.0901 33.4135C26.7013 34.0773 26.599 34.8708 26.8059 35.6142C27.0128 36.3554 27.5107 36.9806 28.1882 37.3489L37.7049 42.5096L33.2603 51.492C33.067 51.8831 32.9647 52.315 32.9647 52.7515V56.0185L7.46786 63.2299H7.47013ZM64.8523 62.2273C64.6886 62.5024 64.2407 63.1003 63.3813 63.2276L38.6484 55.9435V53.4154L44.0115 42.5755C44.689 41.2069 44.1615 39.545 42.8202 38.8175L33.4785 33.75L38.3255 25.4723C38.5802 25.0358 38.7143 24.5402 38.7143 24.0355V10.9154L64.8932 60.1562C65.4047 61.0997 65.0341 61.9181 64.8523 62.225V62.2273Z" fill="url(#paint0_linear_159_346)"/>
<defs>
<linearGradient id="paint0_linear_159_346" x1="34.8524" y1="-19.57" x2="34.8524" y2="94.281" gradientUnits="userSpaceOnUse">
<stop stop-color="#DC4CC1"/>
<stop offset="1" stop-color="#4146AE"/>
</linearGradient>
</defs>
</svg>
