<svg width="33" height="32" viewBox="0 0 33 32" fill="none" xmlns="http://www.w3.org/2000/svg">
<path d="M32.449 26.564L19.1687 1.58349C18.6747 0.67154 17.7227 0.104736 16.6851 0.104736C15.6476 0.104736 14.6955 0.67154 14.2015 1.58349L0.440987 26.564C-0.171203 27.6934 -0.144816 29.0275 0.512761 30.1316C1.17034 31.2356 2.33033 31.8953 3.61593 31.8953H3.79853L16.6967 28.2475L29.0841 31.8953H29.2741C30.5597 31.8953 31.7197 31.2356 32.3772 30.1316C33.0348 29.0275 33.0612 27.6934 32.449 26.564ZM3.46816 29.2471C3.06601 29.1901 2.85597 28.9104 2.77997 28.7827C2.69448 28.6402 2.52243 28.2602 2.76097 27.8222L15.3362 4.99064V10.6935L12.5771 15.4042C12.3966 15.7124 12.3491 16.0808 12.4452 16.4259C12.5412 16.77 12.7724 17.0603 13.0869 17.2313L17.5053 19.6273L15.4417 23.7975C15.352 23.9791 15.3045 24.1796 15.3045 24.3823V25.899L3.4671 29.2471H3.46816ZM30.109 28.7816C30.033 28.9093 29.825 29.1869 29.4261 29.246L17.9433 25.8642V24.6905L20.4332 19.6579C20.7477 19.0225 20.5029 18.2509 19.8801 17.9131L15.5431 15.5604L17.7934 11.7173C17.9116 11.5147 17.9739 11.2846 17.9739 11.0503V4.95898L30.128 27.82C30.3655 28.2581 30.1934 28.6381 30.109 28.7806V28.7816Z" fill="white"/>
</svg>
