<svg width="36" height="36" viewBox="0 0 36 36" fill="none" xmlns="http://www.w3.org/2000/svg">
<path fill-rule="evenodd" clip-rule="evenodd" d="M25.7141 7.71437C25.7141 6.29421 26.8653 5.14294 28.2855 5.14294C29.7057 5.14294 30.8569 6.29421 30.8569 7.71437V27.0001C30.8569 28.4202 29.7057 29.5715 28.2855 29.5715C26.8653 29.5715 25.7141 28.4202 25.7141 27.0001V7.71437ZM24.4284 26.4267V8.35723C24.4284 8.35723 21.2141 11.5715 14.1426 11.5715H9.64104C6.44567 11.5715 3.85693 14.1619 3.85693 17.3572C3.85693 20.5526 6.44566 23.1429 9.64102 23.1429L14.1426 23.1429C21.2141 23.1429 24.4284 26.4267 24.4284 26.4267ZM11.527 29.6765L9.37967 25.0715H15.0542L16.188 27.503C16.7882 28.7901 16.2313 30.3201 14.9442 30.9203C13.6571 31.5205 12.1272 30.9636 11.527 29.6765Z" fill="url(#paint0_radial_62_1224)"/>
<defs>
<radialGradient id="paint0_radial_62_1224" cx="0" cy="0" r="1" gradientUnits="userSpaceOnUse" gradientTransform="translate(41.0635 18.1493) scale(105.629 65.485)">
<stop stop-color="#C4FF1E"/>
<stop offset="0.5922" stop-color="#007AFF"/>
</radialGradient>
</defs>
</svg>
