<svg width="28" height="29" viewBox="0 0 28 29" fill="none" xmlns="http://www.w3.org/2000/svg">
<rect x="25.1567" y="25.2705" width="22.3614" height="22.3614" rx="11.1807" transform="rotate(180 25.1567 25.2705)" fill="white"/>
<path d="M10.5237 18.7858L17.7347 18.7858C19.0605 18.7858 19.9009 17.3556 19.2339 16.1995L14.7835 8.48595C14.4931 7.98229 13.7653 7.98229 13.4749 8.48595L9.02363 16.1995C8.35751 17.3538 9.19786 18.7858 10.5228 18.7858L10.5237 18.7858ZM14.7871 10.7991L15.7563 12.6749L18.0949 16.8574C18.2492 17.1251 18.0587 17.4681 17.7356 17.4681L14.788 17.4681L14.788 10.7982L14.7871 10.7991ZM10.1653 16.8583L12.503 12.6739L13.4722 10.7991L13.4722 17.469L10.5246 17.469C10.2015 17.469 10.011 17.126 10.1653 16.8583Z" fill="#01012F"/>
</svg>
