<svg width="36" height="37" viewBox="0 0 36 37" fill="none" xmlns="http://www.w3.org/2000/svg">
<path d="M15.8047 0.0854492H3.83028C1.71173 0.0854492 0 1.79718 0 3.91573V32.2552C0 34.3737 1.71173 36.0854 3.83028 36.0854H15.8047C17.9156 36.0854 19.635 34.3737 19.635 32.2552V3.91573C19.635 1.79718 17.9232 0.0854492 15.8047 0.0854492ZM9.81748 32.8155C8.91173 32.8155 8.18252 32.0863 8.18252 31.1805C8.18252 30.2748 8.91173 29.5456 9.81748 29.5456C10.7232 29.5456 11.4525 30.2748 11.4525 31.1805C11.4525 32.0786 10.7232 32.8155 9.81748 32.8155ZM12.2738 4.99803H7.36119C6.90832 4.99803 6.53987 4.62959 6.53987 4.17671C6.53987 3.72383 6.90832 3.35539 7.36119 3.35539H12.2738C12.7267 3.35539 13.0951 3.72383 13.0951 4.17671C13.0874 4.62959 12.7267 4.99803 12.2738 4.99803Z" fill="#C4FF1E"/>
</svg>
