<svg width="63" height="63" viewBox="0 0 63 63" fill="none" xmlns="http://www.w3.org/2000/svg">
<path d="M35.3716 61.25C34.95 61.25 34.5875 61.1067 34.284 60.82C33.9805 60.5334 33.7866 60.1625 33.7023 59.7072C33.2976 56.9925 32.8677 54.7163 32.4124 52.8784C31.9572 51.0405 31.367 49.5315 30.642 48.3512C29.917 47.1709 28.9727 46.2267 27.8093 45.5185C26.6459 44.8103 25.1537 44.237 23.3327 43.7986C21.5285 43.3602 19.2944 42.964 16.6303 42.6099C16.1582 42.5593 15.7704 42.3739 15.4669 42.0535C15.1803 41.7331 15.0369 41.3538 15.0369 40.9154C15.0369 40.477 15.1803 40.0976 15.4669 39.7772C15.7704 39.4569 16.1582 39.2714 16.6303 39.2208C19.2944 38.9342 21.5369 38.5885 23.358 38.1839C25.1958 37.7623 26.7049 37.189 27.8852 36.464C29.0655 35.739 30.0181 34.7779 30.7432 33.5807C31.4682 32.3836 32.0499 30.8577 32.4883 29.0029C32.9436 27.1313 33.3482 24.8382 33.7023 22.1235C33.7698 21.6683 33.9552 21.3058 34.2587 21.036C34.5791 20.7494 34.95 20.606 35.3716 20.606C35.81 20.606 36.1809 20.7494 36.4844 21.036C36.7879 21.3058 36.9818 21.6683 37.0661 22.1235C37.4539 24.8382 37.8755 27.1229 38.3307 28.9776C38.786 30.8324 39.3677 32.3583 40.0759 33.5554C40.8009 34.7526 41.7536 35.7137 42.9338 36.4387C44.1141 37.1469 45.6063 37.7117 47.4105 38.1333C49.2315 38.5379 51.474 38.9005 54.1381 39.2208C54.6102 39.2883 54.9896 39.4822 55.2762 39.8025C55.5629 40.106 55.7062 40.477 55.7062 40.9154C55.7062 41.3538 55.5545 41.7331 55.251 42.0535C54.9643 42.3739 54.5934 42.5593 54.1381 42.6099C51.474 42.9134 49.2231 43.2759 47.3852 43.6975C45.5642 44.1021 44.0635 44.6586 42.8833 45.3667C41.703 46.0749 40.7503 47.036 40.0253 48.25C39.3002 49.4471 38.7185 50.9731 38.2801 52.8278C37.8417 54.6994 37.4371 56.9925 37.0661 59.7072C36.9818 60.1625 36.7879 60.5334 36.4844 60.82C36.1978 61.1067 35.8268 61.25 35.3716 61.25ZM17.6167 33.1508C17.0097 33.1508 16.6725 32.822 16.605 32.1644C16.4027 30.512 16.1835 29.2137 15.9475 28.2695C15.7283 27.3084 15.3742 26.5918 14.8852 26.1196C14.3962 25.6307 13.6628 25.2682 12.6848 25.0321C11.7237 24.7792 10.3917 24.5178 8.6887 24.2481C7.99739 24.1469 7.65173 23.8012 7.65173 23.2111C7.65173 22.6209 7.95524 22.2753 8.56224 22.1741C10.2989 21.8538 11.6563 21.5671 12.6342 21.3142C13.629 21.0444 14.3709 20.6819 14.8599 20.2267C15.3657 19.7545 15.7283 19.0548 15.9475 18.1274C16.1835 17.2001 16.4027 15.9018 16.605 14.2325C16.6725 13.5749 17.0097 13.2461 17.6167 13.2461C18.2406 13.2461 18.5862 13.5665 18.6537 14.2072C18.8729 15.9102 19.0921 17.2422 19.3113 18.2033C19.5473 19.1644 19.9098 19.8894 20.3988 20.3784C20.8878 20.8674 21.6213 21.2299 22.5992 21.466C23.5772 21.702 24.9345 21.9381 26.6712 22.1741C26.941 22.2078 27.1602 22.3174 27.3288 22.5029C27.5142 22.6884 27.607 22.9244 27.607 23.2111C27.607 23.7844 27.3035 24.13 26.6965 24.2481C24.9429 24.5684 23.5772 24.8635 22.5992 25.1333C21.6213 25.3862 20.8878 25.7487 20.3988 26.2208C19.9098 26.6929 19.5473 27.4011 19.3113 28.3453C19.0921 29.2727 18.8729 30.5626 18.6537 32.215C18.62 32.4848 18.5104 32.7124 18.3249 32.8979C18.1394 33.0665 17.9034 33.1508 17.6167 33.1508ZM29.9085 15.2947C29.5207 15.2947 29.3015 15.0924 29.251 14.6877C29.0655 13.6592 28.9053 12.8583 28.7704 12.285C28.6355 11.6949 28.4163 11.2481 28.1128 10.9446C27.8262 10.6411 27.3794 10.405 26.7724 10.2364C26.1822 10.0509 25.3476 9.86543 24.2685 9.67996C23.8469 9.61252 23.6362 9.39332 23.6362 9.02237C23.6362 8.65143 23.8385 8.43223 24.2432 8.36479C25.3223 8.14559 26.1654 7.95169 26.7724 7.78307C27.3794 7.61446 27.8262 7.3784 28.1128 7.0749C28.4163 6.7714 28.6355 6.33301 28.7704 5.75973C28.9053 5.18645 29.0655 4.39397 29.251 3.3823C29.3015 2.96077 29.5207 2.75 29.9085 2.75C30.2795 2.75 30.4987 2.95233 30.5661 3.357C30.7347 4.38554 30.8865 5.19488 31.0214 5.78502C31.1731 6.37516 31.3923 6.82198 31.679 7.12549C31.9825 7.42899 32.4293 7.66505 33.0194 7.83366C33.6264 7.98541 34.4779 8.16245 35.5739 8.36479C35.9786 8.43223 36.1809 8.65143 36.1809 9.02237C36.1809 9.39332 35.9786 9.61252 35.5739 9.67996C34.4948 9.8823 33.6517 10.0762 33.0447 10.2617C32.4377 10.4303 31.9909 10.6663 31.7043 10.9698C31.4176 11.2733 31.1984 11.7202 31.0467 12.3103C30.8949 12.8836 30.7347 13.6761 30.5661 14.6877C30.4987 15.0924 30.2795 15.2947 29.9085 15.2947Z" fill="#C4FF1E"/>
</svg>
