<svg width="28" height="20" viewBox="0 0 28 20" fill="none" xmlns="http://www.w3.org/2000/svg">
<path d="M6.9 11.2625C8.1 11.2875 9.2125 11.8875 9.9625 12.9375C10.875 14.225 12.3875 15 14 15C15.6125 15 17.125 14.225 18.0375 12.925C18.7875 11.875 19.9 11.275 21.1 11.25C20.2 9.725 16.6 8.75 14 8.75C11.4125 8.75 7.8 9.725 6.9 11.2625Z" fill="white"/>
<path d="M4 11.25C6.075 11.25 7.75 9.575 7.75 7.5C7.75 5.425 6.075 3.75 4 3.75C1.925 3.75 0.25 5.425 0.25 7.5C0.25 9.575 1.925 11.25 4 11.25Z" fill="white"/>
<path d="M24 11.25C26.075 11.25 27.75 9.575 27.75 7.5C27.75 5.425 26.075 3.75 24 3.75C21.925 3.75 20.25 5.425 20.25 7.5C20.25 9.575 21.925 11.25 24 11.25Z" fill="white"/>
<path d="M14 7.5C16.075 7.5 17.75 5.825 17.75 3.75C17.75 1.675 16.075 0 14 0C11.925 0 10.25 1.675 10.25 3.75C10.25 5.825 11.925 7.5 14 7.5Z" fill="white"/>
<path d="M25.25 12.5H21.1625C20.2 12.5 19.475 13.0625 19.0625 13.65C19.0125 13.725 17.3625 16.25 14 16.25C12.2125 16.25 10.2125 15.45 8.9375 13.65C8.45 12.9625 7.6875 12.5 6.8375 12.5H2.75C1.375 12.5 0.25 13.625 0.25 15V20H9V17.175C10.4375 18.175 12.175 18.75 14 18.75C15.825 18.75 17.5625 18.175 19 17.175V20H27.75V15C27.75 13.625 26.625 12.5 25.25 12.5Z" fill="white"/>
</svg>
