<svg width="36" height="37" viewBox="0 0 36 37" fill="none" xmlns="http://www.w3.org/2000/svg">
<path d="M30.8033 16.5723H28.0192C28.3029 17.3493 28.458 18.1878 28.458 19.0617V29.584C28.458 29.9483 28.3946 30.2981 28.2792 30.6233H32.8819C34.6013 30.6233 36 29.2245 36 27.5052V21.7691C36.0001 18.9036 33.6688 16.5723 30.8033 16.5723Z" fill="#C4FF1E"/>
<path d="M7.54208 19.0618C7.54208 18.1878 7.69712 17.3494 7.9809 16.5724H5.19681C2.33129 16.5724 0 18.9037 0 21.7692V27.5054C0 29.2247 1.39873 30.6235 3.11808 30.6235H7.72089C7.6055 30.2981 7.54208 29.9484 7.54208 29.5841V19.0618Z" fill="#C4FF1E"/>
<path d="M21.1825 13.865H14.8176C11.9521 13.865 9.62081 16.1962 9.62081 19.0618V29.5841C9.62081 30.158 10.0861 30.6234 10.6602 30.6234H25.3399C25.9139 30.6234 26.3793 30.1581 26.3793 29.5841V19.0618C26.3793 16.1962 24.048 13.865 21.1825 13.865Z" fill="#C4FF1E"/>
<path d="M18 0.0854492C14.5539 0.0854492 11.7502 2.88909 11.7502 6.33533C11.7502 8.67287 13.0404 10.7144 14.9457 11.7862C15.8494 12.2946 16.8913 12.5851 18 12.5851C19.1087 12.5851 20.1506 12.2946 21.0543 11.7862C22.9597 10.7144 24.2498 8.6728 24.2498 6.33533C24.2498 2.88916 21.4462 0.0854492 18 0.0854492Z" fill="#C4FF1E"/>
<path d="M7.0255 5.91078C4.44819 5.91078 2.35147 8.0075 2.35147 10.5848C2.35147 13.1621 4.44819 15.2588 7.0255 15.2588C7.67927 15.2588 8.30181 15.1234 8.86734 14.88C9.84511 14.459 10.6513 13.7139 11.1502 12.7805C11.5003 12.1254 11.6995 11.378 11.6995 10.5848C11.6995 8.00757 9.60281 5.91078 7.0255 5.91078Z" fill="#C4FF1E"/>
<path d="M28.9746 5.91078C26.3973 5.91078 24.3005 8.0075 24.3005 10.5848C24.3005 11.3781 24.4997 12.1254 24.8499 12.7805C25.3488 13.7139 26.155 14.4591 27.1327 14.88C27.6983 15.1234 28.3208 15.2588 28.9746 15.2588C31.5519 15.2588 33.6486 13.1621 33.6486 10.5848C33.6486 8.0075 31.5519 5.91078 28.9746 5.91078Z" fill="#C4FF1E"/>
</svg>
