<svg width="36" height="36" viewBox="0 0 36 36" fill="none" xmlns="http://www.w3.org/2000/svg">
<path d="M3.87302 17.6563C11.4673 14.3483 16.5301 12.1673 19.0616 11.1136C26.2977 8.10481 27.7994 7.58225 28.7803 7.56475C28.996 7.56108 29.4762 7.6144 29.7896 7.86795C30.05 8.08162 30.1234 8.37057 30.16 8.57325C30.1925 8.77593 30.2373 9.23786 30.2007 9.59844C29.81 13.7171 28.1129 23.7118 27.2501 28.325C26.8879 30.277 26.1675 30.9314 25.4715 30.9953C23.9576 31.1345 22.8098 29.9957 21.3447 29.0356C19.0534 27.5326 17.7592 26.5973 15.533 25.131C12.9609 23.4363 14.6295 22.5047 16.0946 20.9826C16.4772 20.5842 23.1435 14.5221 23.2697 13.9723C23.286 13.9035 23.3023 13.6471 23.1477 13.512C22.9971 13.3765 22.7731 13.4229 22.6103 13.4595C22.3783 13.5116 18.7196 15.9323 11.6218 20.7213C10.584 21.4352 9.64388 21.7831 8.79736 21.7648C7.86943 21.7449 6.07883 21.239 4.74799 20.8068C3.12006 20.2765 1.82172 19.9961 1.93568 19.0954C1.99266 18.6266 2.63986 18.1467 3.87302 17.6563Z" fill="url(#paint0_radial_62_1216)"/>
<defs>
<radialGradient id="paint0_radial_62_1216" cx="0" cy="0" r="1" gradientUnits="userSpaceOnUse" gradientTransform="translate(40.907 19.283) scale(110.659 59.0004)">
<stop stop-color="#C4FF1E"/>
<stop offset="0.5922" stop-color="#007AFF"/>
</radialGradient>
</defs>
</svg>
