<svg width="17" height="14" viewBox="0 0 17 14" fill="none" xmlns="http://www.w3.org/2000/svg">
<path fill-rule="evenodd" clip-rule="evenodd" d="M1.2487 6.02727C5.78131 4.05261 8.8071 2.7463 10.32 2.12048C14.6399 0.322021 15.5392 0.0121518 16.1225 0C16.2501 0 16.5417 0.0303794 16.724 0.182276C16.9974 0.407084 17.0035 0.893154 16.9731 1.21518C16.7361 3.67591 15.7275 9.64242 15.2111 12.4009C14.9923 13.5674 14.561 13.9563 14.1478 13.9928C13.2425 14.0778 12.5559 13.3973 11.681 12.8201C10.3139 11.9209 9.5362 11.3619 8.21166 10.487C6.67446 9.4723 7.67091 8.91939 8.54583 8.00801C8.77672 7.77105 12.7564 4.14983 12.8293 3.82173C12.8415 3.7792 12.8476 3.6273 12.7564 3.54831C12.6653 3.46933 12.5316 3.49363 12.4344 3.51794C12.2947 3.54831 10.1073 4.99437 5.87245 7.85611C5.25271 8.28142 4.68765 8.48801 4.18335 8.48193C3.63045 8.46978 2.56109 8.16598 1.76515 7.9108C0.793012 7.59485 0.0152983 7.42473 0.082133 6.89005C0.124664 6.60448 0.513522 6.31892 1.2487 6.02727Z" fill="white"/>
</svg>
