<svg width="147" height="134" viewBox="0 0 147 134" fill="none" xmlns="http://www.w3.org/2000/svg">
<path d="M23.8653 133.747L123.14 133.747C141.393 133.747 152.963 115.833 143.78 101.351L82.5107 4.73156C78.5126 -1.5772 68.493 -1.5772 64.4949 4.73156L3.21356 101.351C-5.95714 115.809 5.61217 133.747 23.8529 133.747L23.8653 133.747ZM82.5606 33.7062L95.9039 57.2016L128.1 109.592C130.224 112.945 127.601 117.242 123.153 117.242L82.5731 117.242L82.5731 33.6949L82.5606 33.7062ZM18.9305 109.603L51.1142 57.1903L64.4575 33.7062L64.4575 117.253L23.8778 117.253C19.43 117.253 16.8066 112.956 18.9305 109.603Z" fill="white"/>
</svg>
